<?xml version="1.0" encoding="utf-8"?>
<!-- Generator: Adobe Illustrator 26.0.1, SVG Export Plug-In . SVG Version: 6.00 Build 0)  -->
<svg version="1.1" id="Layer_1" xmlns="http://www.w3.org/2000/svg" xmlns:xlink="http://www.w3.org/1999/xlink" x="0px" y="0px"
	 viewBox="0 0 374.02 57" style="enable-background:new 0 0 374.02 57;" xml:space="preserve">
<style type="text/css">
	.st0{clip-path:url(#SVGID_00000158731970018634345200000013790429620515715736_);}
	.st1{fill:#010101;}
</style>
<g>
	<defs>
		<rect id="SVGID_1_" x="-3.37" width="379.01" height="57.6"/>
	</defs>
	<clipPath id="SVGID_00000148654446479748597730000005488722986684686978_">
		<use xlink:href="#SVGID_1_"  style="overflow:visible;"/>
	</clipPath>
	<g style="clip-path:url(#SVGID_00000148654446479748597730000005488722986684686978_);">
		<path class="st1" d="M366.65,16.61h1.17v3.13h0.39v-3.13h1.17v-0.39h-2.73V16.61z"/>
		<path class="st1" d="M373.38,16.21l-1.38,2.1l-1.38-2.1h-0.43v3.53h0.4v-2.82l1.38,2.06h0.05l1.36-2.06v2.82h0.41v-3.53H373.38z"
			/>
		<path class="st1" d="M223.4,15.42h-4.77v41.53h27.42v-4.73h-22.65L223.4,15.42z"/>
		<path class="st1" d="M253.09,56.95h29.03v-4.73h-24.28V38.54h22.19v-4.71h-22.19V20.14h24.31v-4.72h-29.06V56.95z"/>
		<path class="st1" d="M335.33,56.95h4.72v-18.4h22.41v-4.73h-22.41V20.14h24.3v-4.72h-29.02V56.95z"/>
		<path class="st1" d="M87.07,19.78h26.12L87.07,55.29v1.69h33.59v-4.41H94.73l25.93-35.18v-2.01H87.07V19.78z"/>
		<path class="st1" d="M305.38,15.39L288.6,56.95h4.95l4.14-9.8h21.5l4.2,9.8h5l-16.85-41.56H305.38z M299.49,42.41l8.42-20.81
			c0.02,0.03,1.13-0.03,1.16,0l8.34,20.81H299.49z"/>
		<path class="st1" d="M193.42,15.32c-6.53,0-11.61,2.6-14.53,7.38v-6.49h-4.88v40.77h4.88V37.09c0-9.47,6.3-17.16,14.04-17.16
			c9.03,0,10.92,6.72,10.92,12.38v24.66h4.77V31.63C208.62,21.73,202.65,15.32,193.42,15.32z"/>
		<path class="st1" d="M145.38,15.01c-11.49,0-20.48,9.34-20.48,21.26c0,12.26,8.94,21.16,21.26,21.16c3.2,0.1,6.39-0.53,9.31-1.84
			c2.92-1.32,5.51-3.28,7.55-5.75l0.33-0.41L160,46.46l-0.36,0.44c-1.62,1.98-3.69,3.56-6.03,4.6c-2.34,1.04-4.89,1.53-7.45,1.41
			c-9.4,0-15.72-6-16.24-15.32h35.46l0.02-0.54c0.14-3-0.32-6.01-1.35-8.83s-2.62-5.42-4.66-7.62c-1.84-1.83-4.02-3.26-6.42-4.22
			C150.55,15.41,147.97,14.95,145.38,15.01L145.38,15.01z M130.06,33.39c1.2-8.5,7.15-13.96,15.32-13.96
			c10.01,0,14.25,7.1,14.96,13.96H130.06z"/>
		<path class="st1" d="M80.27,16.24c-6.15,0.39-12.23,1.49-18.12,3.29c-1.89,0.59-3.74,1.29-5.54,2.09l-0.36,0.14
			c0.2,0.56,0.39,1.12,0.56,1.66l0.43-0.2c1.77-0.78,3.58-1.46,5.42-2.04c5.51-1.67,11.18-2.73,16.92-3.15
			c-0.41,5.74-1.47,11.41-3.16,16.92c-2.55,8.07-6.28,13.88-11.1,17.24c-3.54,2.43-7.76,3.68-12.05,3.58
			c-2.65-0.02-5.29-0.36-7.86-1.01c-0.66,0.43-1.36,0.85-2.07,1.27l0.1,0.03c3.2,0.94,6.51,1.44,9.85,1.48
			c4.65,0.1,9.22-1.27,13.05-3.91c5.13-3.6,9.09-9.7,11.76-18.15c1.79-5.9,2.9-11.98,3.29-18.13l0.07-1.17L80.27,16.24z"/>
		<path class="st1" d="M53.25,54.04c3.94,0.09,7.82-1.05,11.08-3.27c4.48-3.14,7.99-8.65,10.42-16.35
			c1.38-4.54,2.33-9.19,2.83-13.91l0.07-0.54l-0.54,0.07c-4.71,0.5-9.37,1.45-13.91,2.83c-1.89,0.59-3.74,1.29-5.54,2.1l-0.33,0.14
			l0.1,0.36c0.08,0.28,0.14,0.58,0.21,0.85l0.13,0.51l0.48-0.21c1.78-0.81,3.61-1.51,5.47-2.09c3.9-1.19,7.89-2.05,11.94-2.56
			c-0.52,4.04-1.37,8.04-2.56,11.94c-2.31,7.32-5.61,12.51-9.77,15.44c-2.97,2.01-6.49,3.04-10.08,2.94l0,0
			c-1.35-0.01-2.7-0.12-4.03-0.33c-0.59,0.49-1.2,0.99-1.84,1.45l0.26,0.05C49.49,53.83,51.37,54.03,53.25,54.04L53.25,54.04z"/>
		<path class="st1" d="M53.22,50.54c3.23,0.09,6.41-0.83,9.09-2.63c3.85-2.7,6.9-7.58,9.09-14.53c0.88-2.86,1.57-5.78,2.06-8.73
			l0.1-0.61l-0.61,0.1c-2.95,0.49-5.87,1.17-8.73,2.06c-2,0.62-3.96,1.39-5.85,2.29l-0.29,0.14l0.05,0.31
			c0.05,0.29,0.1,0.59,0.13,0.9l0.08,0.61l0.54-0.26c1.9-0.91,3.86-1.69,5.87-2.31c2.18-0.68,4.39-1.24,6.63-1.66
			c-0.44,2.24-0.99,4.46-1.66,6.64c-2.07,6.58-4.92,11.16-8.43,13.63c-2.39,1.59-5.23,2.4-8.1,2.31c-0.23,0-0.48,0-0.72-0.02
			c-0.49,0.56-1.01,1.12-1.56,1.64l0.46,0.03C52.01,50.5,52.63,50.54,53.22,50.54z"/>
		<path class="st1" d="M60.31,45.05c3.21-2.24,5.82-6.53,7.78-12.73c0.31-0.99,0.61-2.04,0.89-3.14l0.18-0.71l-0.71,0.18
			c-1.1,0.28-2.15,0.58-3.14,0.89c-2.27,0.69-4.47,1.59-6.58,2.7l-0.23,0.13v0.27c0,0.33,0.02,0.66,0,0.97l-0.02,0.76l0.66-0.38
			c2.13-1.15,4.37-2.09,6.69-2.8c0.28-0.08,0.56-0.18,0.85-0.26c-0.08,0.29-0.16,0.58-0.26,0.85c-1.84,5.82-4.23,9.8-7.1,11.82
			c-1.24,0.84-2.67,1.37-4.16,1.55c-0.38,0.64-0.81,1.27-1.25,1.88l0.66-0.05C56.62,46.87,58.6,46.2,60.31,45.05L60.31,45.05z"/>
		<path class="st1" d="M58.3,42.17c2.4-1.97,4.2-4.56,5.21-7.5l0.39-0.97l-0.97,0.39c-1.6,0.64-3.12,1.45-4.55,2.4l-0.14,0.1
			c0,0-0.07,0.46-0.08,0.54c-0.05,0.29-0.12,0.59-0.18,0.87l-0.26,1.2l0.95-0.76c0.49-0.38,1-0.73,1.53-1.05
			c-0.74,1.31-1.74,2.45-2.94,3.36l-0.1,0.07c-0.28,0.82-0.61,1.62-0.99,2.4l0.95-0.41C57.54,42.65,57.94,42.43,58.3,42.17
			L58.3,42.17z"/>
		<path class="st1" d="M28.51,55.8c-4.29,0.1-8.51-1.16-12.05-3.58c-4.82-3.37-8.55-9.17-11.1-17.24
			C3.7,29.46,2.64,23.79,2.21,18.05c5.74,0.41,11.41,1.47,16.92,3.16c1.84,0.58,3.65,1.26,5.42,2.04l0.44,0.2
			c0.18-0.54,0.36-1.1,0.56-1.66l-0.35-0.14c-1.81-0.8-3.67-1.5-5.56-2.09c-5.9-1.79-11.98-2.89-18.13-3.28l-1.17-0.07l0.07,1.18
			C0.81,23.52,1.91,29.6,3.7,35.49c2.66,8.45,6.63,14.55,11.76,18.15c3.84,2.63,8.4,3.99,13.05,3.9l0,0
			c3.34-0.04,6.66-0.54,9.86-1.48l0.1-0.03c-0.72-0.41-1.41-0.84-2.07-1.27C33.82,55.42,31.18,55.76,28.51,55.8L28.51,55.8z"/>
		<path class="st1" d="M18.47,49.34c-4.16-2.93-7.45-8.12-9.77-15.44C7.51,30,6.65,26.01,6.14,21.96c4.04,0.52,8.04,1.38,11.94,2.57
			c1.87,0.59,3.71,1.29,5.5,2.1l0.48,0.21l0.13-0.51c0.07-0.28,0.14-0.56,0.21-0.85l0.1-0.36l-0.33-0.14
			c-1.8-0.81-3.65-1.51-5.54-2.1c-4.54-1.38-9.19-2.33-13.91-2.83l-0.55-0.07l0.07,0.54c0.5,4.71,1.45,9.37,2.83,13.91
			c2.43,7.69,5.93,13.2,10.42,16.35c3.26,2.22,7.14,3.37,11.08,3.27c1.89-0.01,3.77-0.21,5.62-0.58l0.26-0.05
			c-0.64-0.48-1.25-0.95-1.84-1.45c-1.34,0.21-2.69,0.32-4.05,0.33C24.97,52.39,21.44,51.35,18.47,49.34z"/>
		<path class="st1" d="M20.47,46.48c-3.52-2.46-6.37-7.05-8.43-13.63c-0.68-2.18-1.24-4.4-1.66-6.64c2.24,0.44,4.46,0.99,6.64,1.66
			c2.01,0.62,3.97,1.4,5.87,2.31l0.54,0.26l0.08-0.61c0.03-0.29,0.08-0.59,0.13-0.9l0.05-0.31l-0.29-0.14
			c-1.9-0.9-3.86-1.67-5.87-2.29c-2.86-0.88-5.78-1.57-8.74-2.06l-0.61-0.1l0.1,0.61c0.49,2.95,1.17,5.87,2.06,8.73
			c2.19,6.95,5.27,11.84,9.09,14.53c2.68,1.8,5.86,2.72,9.09,2.63c0.59,0,1.22-0.03,1.86-0.08l0.46-0.03
			c-0.56-0.54-1.07-1.08-1.56-1.64c-0.25,0.02-0.49,0.02-0.74,0.02C25.68,48.87,22.86,48.06,20.47,46.48L20.47,46.48z"/>
		<path class="st1" d="M15.38,31.8c-0.1-0.28-0.18-0.56-0.26-0.85c0.29,0.08,0.58,0.16,0.85,0.26c2.32,0.71,4.56,1.64,6.69,2.79
			l0.66,0.38l-0.02-0.76v-1.23l-0.23-0.13c-2.11-1.1-4.32-2-6.59-2.71c-0.99-0.31-2.04-0.61-3.14-0.89l-0.7-0.18l0.18,0.71
			c0.28,1.1,0.58,2.15,0.89,3.14c1.96,6.2,4.57,10.47,7.78,12.73c1.71,1.15,3.7,1.82,5.75,1.94l0.66,0.05
			c-0.44-0.61-0.87-1.23-1.25-1.88c-1.49-0.18-2.93-0.71-4.18-1.54C19.6,41.59,17.2,37.62,15.38,31.8z"/>
		<path class="st1" d="M24.48,40.74c-1.19-0.9-2.18-2.04-2.91-3.34c0.54,0.32,1.05,0.68,1.54,1.07l0.95,0.76l-0.26-1.2
			c-0.07-0.29-0.13-0.59-0.18-0.89c-0.02-0.08-0.08-0.54-0.08-0.54l-0.14-0.1c-1.44-0.96-2.97-1.77-4.57-2.42l-0.97-0.39l0.39,0.97
			c1.01,2.93,2.81,5.53,5.21,7.5c0.36,0.26,0.76,0.47,1.17,0.64l0.95,0.41c-0.37-0.76-0.69-1.54-0.95-2.33l-0.04-0.08L24.48,40.74z"
			/>
		<path class="st1" d="M39.78,55.17c-8.47-4.69-13.4-10.75-14.68-18.02c-1.09-6.17,0.43-13.28,4.52-21.14
			c2.9-5.44,6.42-10.52,10.49-15.14L40.89,0l0.79,0.87c4.08,4.62,7.6,9.7,10.49,15.14c4.09,7.86,5.61,14.98,4.52,21.14
			c-1.28,7.27-6.22,13.33-14.68,18.02l-1.13,0.59L39.78,55.17z M40.89,2.63c-3.76,4.35-7.03,9.11-9.73,14.19
			c-3.91,7.51-5.38,14.25-4.36,20.04c1.18,6.72,5.82,12.38,13.79,16.78l0.29,0.14l0.29-0.16c7.96-4.41,12.59-10.06,13.78-16.78
			c1.01-5.79-0.44-12.53-4.36-20.04C47.91,11.72,44.65,6.97,40.89,2.63L40.89,2.63z"/>
		<path class="st1" d="M40.68,51.67c-7-4.08-11.08-9.16-12.13-15.11c-0.95-5.39,0.46-11.77,4.18-18.92
			c2.23-4.19,4.85-8.15,7.84-11.84l0.35-0.43l0.35,0.43c2.98,3.69,5.61,7.65,7.84,11.84c3.73,7.17,5.13,13.53,4.18,18.92
			c-1.05,5.97-5.13,11.05-12.13,15.11l-0.21,0.13L40.68,51.67z M40.89,8.19c-2.49,3.22-4.71,6.65-6.63,10.24
			c-3.53,6.8-4.9,12.81-4.01,17.82c0.92,5.24,4.5,9.78,10.64,13.51c6.13-3.73,9.72-8.27,10.64-13.51
			c0.89-5.01-0.46-10.99-4.01-17.82C45.62,14.83,43.4,11.4,40.89,8.19L40.89,8.19z"/>
		<path class="st1" d="M40.66,47.55c-4.98-3.3-7.89-7.2-8.66-11.59c-0.81-4.62,0.48-10.24,3.85-16.7c1.4-2.65,2.97-5.2,4.72-7.63
			l0.36-0.49l0.36,0.49c1.74,2.44,3.32,4.98,4.72,7.63c3.35,6.46,4.65,12.08,3.85,16.7c-0.77,4.39-3.68,8.29-8.66,11.59l-0.25,0.16
			L40.66,47.55z M40.89,14.17c-1.28,1.89-2.46,3.85-3.52,5.87c-3.17,6.12-4.42,11.36-3.67,15.6c0.64,3.68,3.07,7.04,7.18,9.95
			c4.13-2.91,6.54-6.26,7.18-9.95c0.74-4.24-0.49-9.49-3.67-15.6C43.35,18.02,42.18,16.06,40.89,14.17L40.89,14.17z"/>
		<path class="st1" d="M40.63,43.19c-2.63-1.89-4.48-4.68-5.19-7.84c-0.67-3.85,0.49-8.71,3.5-14.48c0.48-0.92,1-1.88,1.59-2.84
			l0.38-0.62l0.38,0.62c0.58,0.97,1.12,1.92,1.59,2.84c2.99,5.77,4.18,10.64,3.5,14.48c-0.71,3.16-2.56,5.96-5.19,7.84L40.9,43.4
			L40.63,43.19z M40.89,20.88c-0.14,0.26-0.28,0.53-0.41,0.79c-2.81,5.42-3.93,9.91-3.33,13.38c0.53,2.39,1.85,4.53,3.75,6.08
			c1.89-1.55,3.21-3.69,3.75-6.08c0.61-3.47-0.51-7.96-3.33-13.38L40.89,20.88z"/>
		<path class="st1" d="M40.56,38.22c-0.83-1.01-1.41-2.2-1.68-3.48c-0.29-3.09,0.26-6.2,1.61-8.99l0.39-0.97l0.39,0.97
			c1.37,2.79,1.93,5.9,1.61,8.99c-0.26,1.28-0.84,2.48-1.68,3.48l-0.35,0.43L40.56,38.22z M40.89,30.02
			c-0.39,1.43-0.49,2.93-0.29,4.41c0.07,0.34,0.16,0.68,0.29,1c0.14-0.32,0.24-0.66,0.29-1C41.4,32.95,41.3,31.45,40.89,30.02
			L40.89,30.02z"/>
	</g>
</g>
</svg>
